<svg width="474" height="587" viewBox="0 0 474 587" fill="none" xmlns="http://www.w3.org/2000/svg">
<g filter="url(#filter0_d)">
<rect x="30" y="30" width="394" height="507" rx="16" fill="#FEDDBE"/>
</g>
<g filter="url(#filter1_d)">
<path d="M30 46C30 37.1634 37.1634 30 46 30H408C416.837 30 424 37.1634 424 46V81H30V46Z" fill="#FFC947"/>
</g>
<rect x="101" y="149" width="231" height="18" rx="9" fill="#DDA169"/>
<rect x="101" y="221" width="231" height="18" rx="9" fill="#DDA169"/>
<rect x="65" y="185" width="324" height="18" rx="9" fill="#DDA169"/>
<rect x="65" y="257" width="324" height="18" rx="9" fill="#DDA169"/>
<rect x="101" y="293" width="231" height="18" rx="9" fill="#DDA169"/>
<rect x="101" y="365" width="231" height="18" rx="9" fill="#DDA169"/>
<rect x="65" y="329" width="324" height="18" rx="9" fill="#DDA169"/>
<rect x="65" y="401" width="324" height="18" rx="9" fill="#DDA169"/>
<defs>
<filter id="filter0_d" x="0" y="0" width="474" height="587" filterUnits="userSpaceOnUse" color-interpolation-filters="sRGB">
<feFlood flood-opacity="0" result="BackgroundImageFix"/>
<feColorMatrix in="SourceAlpha" type="matrix" values="0 0 0 0 0 0 0 0 0 0 0 0 0 0 0 0 0 0 127 0"/>
<feOffset dx="10" dy="10"/>
<feGaussianBlur stdDeviation="20"/>
<feColorMatrix type="matrix" values="0 0 0 0 0 0 0 0 0 0 0 0 0 0 0 0 0 0 0.25 0"/>
<feBlend mode="normal" in2="BackgroundImageFix" result="effect1_dropShadow"/>
<feBlend mode="normal" in="SourceGraphic" in2="effect1_dropShadow" result="shape"/>
</filter>
<filter id="filter1_d" x="0" y="0" width="474" height="131" filterUnits="userSpaceOnUse" color-interpolation-filters="sRGB">
<feFlood flood-opacity="0" result="BackgroundImageFix"/>
<feColorMatrix in="SourceAlpha" type="matrix" values="0 0 0 0 0 0 0 0 0 0 0 0 0 0 0 0 0 0 127 0"/>
<feOffset dx="10" dy="10"/>
<feGaussianBlur stdDeviation="20"/>
<feColorMatrix type="matrix" values="0 0 0 0 0 0 0 0 0 0 0 0 0 0 0 0 0 0 0.25 0"/>
<feBlend mode="normal" in2="BackgroundImageFix" result="effect1_dropShadow"/>
<feBlend mode="normal" in="SourceGraphic" in2="effect1_dropShadow" result="shape"/>
</filter>
</defs>
</svg>
